<svg width="36" height="36" viewBox="0 0 36 36" fill="none" xmlns="http://www.w3.org/2000/svg">
    <mask id="cwkffgo7ma" style="mask-type:alpha" maskUnits="userSpaceOnUse" x="0" y="0" width="36" height="36">
        <path fill="#D9D9D9" d="M0 0h36v36H0z"/>
    </mask>
    <g mask="url(#cwkffgo7ma)">
        <path d="M9.037 25.95A16.35 16.35 0 0 1 13.2 23.7c1.5-.55 3.1-.825 4.8-.825 1.7 0 3.3.275 4.8.825 1.5.55 2.887 1.3 4.162 2.25a12.053 12.053 0 0 0 2.213-3.563c.55-1.35.825-2.812.825-4.387 0-3.325-1.169-6.156-3.506-8.495C24.157 7.168 21.325 6 18 6s-6.156 1.168-8.493 3.505C7.169 11.843 6 14.675 6 18c0 1.575.275 3.038.825 4.387a12.053 12.053 0 0 0 2.212 3.563zM18 19.125c-1.375 0-2.531-.469-3.468-1.407-.938-.937-1.407-2.093-1.407-3.468s.469-2.531 1.407-3.468c.937-.938 2.093-1.407 3.468-1.407s2.531.469 3.468 1.407c.938.937 1.407 2.093 1.407 3.468s-.469 2.531-1.407 3.468c-.937.938-2.093 1.407-3.468 1.407zm0 13.125c-1.975 0-3.831-.375-5.568-1.125-1.738-.75-3.245-1.762-4.52-3.038-1.274-1.274-2.287-2.781-3.037-4.519C4.125 21.831 3.75 19.975 3.75 18c0-1.975.375-3.832 1.125-5.57.75-1.736 1.763-3.242 3.037-4.518 1.276-1.274 2.782-2.287 4.52-3.037C14.169 4.125 16.025 3.75 18 3.75c1.975 0 3.831.375 5.57 1.125 1.736.75 3.242 1.763 4.517 3.037 1.276 1.276 2.288 2.782 3.038 4.519.75 1.738 1.125 3.594 1.125 5.569s-.375 3.831-1.125 5.568c-.75 1.738-1.762 3.244-3.038 4.52-1.274 1.274-2.78 2.287-4.517 3.037-1.739.75-3.595 1.125-5.57 1.125z" fill="#fff"/>
    </g>
</svg>
