<svg width="179" height="31" viewBox="0 0 179 31" fill="none" xmlns="http://www.w3.org/2000/svg">
    <path d="M89.241 28.736c-.276-.044-.55-.098-.837-.134a11.31 11.31 0 0 1-6.872-3.748 11.124 11.124 0 0 1-2.751-7.29c-.018-4.923-.01-9.846-.01-14.76 0-1.536 1.072-2.665 2.618-2.759 1.321-.08 2.63 1.037 2.746 2.349.014.187.023.373.025.558v4.96c.097-.057.168-.092.233-.13a11.338 11.338 0 0 1 13.358 1.44c2.545 2.335 3.765 5.264 3.666 8.693-.15 5.228-4.12 9.739-9.31 10.631-.378.066-.761.1-1.143.146a.425.425 0 0 0-.097.045l-1.626-.001zm-5.216-11.252c-.034 3.167 2.556 5.956 5.938 6.028a6.106 6.106 0 0 0 5.73-3.677 6.013 6.013 0 0 0 .486-2.336c.018-3.271-2.719-5.987-5.97-6.039-3.357-.044-6.206 2.674-6.184 6.024zM63.393 28.736c-.284-.046-.57-.098-.855-.138a11.346 11.346 0 0 1-6.837-3.727 11.162 11.162 0 0 1-.198-14.53 11.35 11.35 0 0 1 6.735-3.91 11.159 11.159 0 0 1 7.98 1.51l.187.116c.014.005.03.01.045.011.02-.042.043-.087.064-.134a2.238 2.238 0 0 1 1.925-1.454c.456-.048.916-.04 1.37.027.537.078 1.029.348 1.384.76.354.412.545.94.537 1.484v17.564a2.26 2.26 0 0 1-.67 1.597 2.306 2.306 0 0 1-1.608.67 6.272 6.272 0 0 1-1.32-.073c-.858-.184-1.4-.753-1.692-1.583a.77.77 0 0 0-.129.052 11.203 11.203 0 0 1-5.223 1.712c-.027 0-.05.03-.074.046h-1.62zm-5.23-11.239a6.013 6.013 0 0 0 1.83 4.269 6.108 6.108 0 0 0 8.63-.13 5.996 5.996 0 0 0 1.688-4.33c-.097-3.375-2.977-5.928-6.273-5.85-3.176.083-5.886 2.83-5.875 6.04v.001zM128.26 28.735c-.211-.03-.422-.068-.635-.088-4.831-.423-8.992-4.1-9.976-8.817-1.257-6.038 2.421-11.849 8.46-13.293 3.047-.73 5.936-.225 8.621 1.397l.176.11c.16-.279.337-.546.531-.801a2.038 2.038 0 0 1 1.39-.745c.786-.07 1.595-.144 2.312.316a2.183 2.183 0 0 1 1.068 1.687V26.552a2.212 2.212 0 0 1-1.654 1.927 5.34 5.34 0 0 1-1.387.09 2.956 2.956 0 0 1-1.004-.231c-.643-.273-1.023-.8-1.234-1.45a.28.28 0 0 0-.057.022 11.385 11.385 0 0 1-5.19 1.757c-.196.015-.393.048-.589.072l-.832-.004zm.455-5.255a6.078 6.078 0 0 0 4.34-1.734 5.998 5.998 0 0 0 1.803-4.284 5.987 5.987 0 0 0-1.803-4.284 6.102 6.102 0 0 0-4.335-1.743c-3.311 0-6.062 2.709-6.062 5.963a6.048 6.048 0 0 0 1.761 4.309 6.023 6.023 0 0 0 4.296 1.773z" fill="#fff"/>
    <path d="M.003 22.506c.044-.227.087-.453.133-.683.188-.98.666-1.88 1.37-2.583 1.029-1.037 2.072-2.058 3.108-3.085a.735.735 0 0 1 .067-.059l7.637 7.575-.149.156c-1.004.993-1.998 1.995-3.013 2.98a5.129 5.129 0 0 1-3.308 1.462c-2.975.24-5.612-2.321-5.8-4.953A.444.444 0 0 0 0 23.19l.003-.684z" fill="#ED764C"/>
    <path d="M140.249 26.543h-.043V8.506c.014 0 .029.003.043.008v18.03zM108.916 8.023c.722-.335 1.416-.683 2.141-.976a10.893 10.893 0 0 1 3.908-.708c.934-.008 1.607.595 1.652 1.531.037.722.037 1.445 0 2.166-.045.92-.706 1.498-1.639 1.521-2.319.06-4.09 1.082-5.262 3.065-.289.488-.442 1.057-.644 1.593-.031.119-.04.241-.029.363v9.67c.006.31-.051.617-.167.904a2.312 2.312 0 0 1-2.193 1.436 5.9 5.9 0 0 1-1.314-.092 2.25 2.25 0 0 1-1.713-2.198V8.775a2.284 2.284 0 0 1 .641-1.599c.417-.43.984-.683 1.582-.705.465-.032.932-.01 1.391.07a2.205 2.205 0 0 1 1.646 1.482z" fill="#fff"/>
    <path d="m21.006 14.508-7.3-7.242L21.032 0l7.301 7.241-7.328 7.267z" fill="#ED764C"/>
    <path d="M34.546 15.24v2.022a.503.503 0 0 1-.132.314c-.95.953-1.905 1.9-2.866 2.841a.524.524 0 0 1-.335.136c-1.358.01-2.717.01-4.076 0a.525.525 0 0 1-.335-.137c-.962-.94-1.918-1.886-2.866-2.84a.535.535 0 0 1-.134-.336 300.134 300.134 0 0 1 0-4.025.524.524 0 0 1 .137-.336c.947-.954 1.902-1.902 2.864-2.843a.579.579 0 0 1 .359-.15c1.339-.01 2.682-.01 4.028 0 .133.006.26.059.358.15.96.938 1.915 1.885 2.864 2.84a.54.54 0 0 1 .141.335c.002.68-.007 1.352-.007 2.03z" fill="#E95386"/>
    <path d="m29.815 23.53 7.632-7.566c.052.045.116.104.178.167l2.986 2.963a5.18 5.18 0 0 1 0 7.286c-.837.84-1.78 1.473-2.97 1.678-1.767.315-3.331-.124-4.632-1.357-1.06-1.007-2.078-2.047-3.112-3.078a.834.834 0 0 1-.082-.093z" fill="#ED764C"/>
    <path d="M12.664 20.463a5.29 5.29 0 0 1-3.744-1.527 5.235 5.235 0 0 1-1.16-5.729A5.233 5.233 0 0 1 8.9 11.5a5.305 5.305 0 0 1 3.747-1.551 5.314 5.314 0 0 1 4.918 3.245 5.222 5.222 0 0 1-1.153 5.737 5.322 5.322 0 0 1-3.743 1.532h-.005z" fill="#F49C1A"/>
    <path d="m151.05 22.485-.131-.161c-.445-.547-1.103-.944-2.078-.944-.621 0-1.005.128-1.232.314-.22.18-.322.44-.322.78 0 .172.051.299.134.4.088.106.221.197.404.275.346.148.811.232 1.332.325l.121.022h.001l-.036.197 1.807-1.208zm0 0 .156-.137.572-.503.158-.14-.147-.15c-.683-.7-1.591-1.204-2.948-1.204-.872 0-1.548.23-2.011.62a1.94 1.94 0 0 0-.696 1.515c0 .368.09.672.256.923.164.25.394.432.655.572.514.273 1.184.393 1.8.5m2.205-1.996-2.205 1.995m0 0h-.001l.036-.197-.034.197h-.001zm4.475 3.007v.2h1.127v-3.982c0-1.293.998-2.275 2.319-2.275.737 0 1.291.23 1.662.614.371.385.58.947.58 1.649v3.994h1.153v-3.994c0-1.017-.319-1.853-.903-2.437-.583-.582-1.41-.892-2.388-.892-1.006 0-1.866.39-2.436 1.01v-3.988H153.32V27.487zM171.72 30v-3.337c.675.757 1.704 1.162 2.644 1.162 2.249 0 3.836-1.58 3.836-3.73 0-2.113-1.665-3.731-3.81-3.731-.969 0-2.011.412-2.683 1.183v-1.045h-1.115V30.2h1.128V30zm-6.404-2.175c2.197 0 3.849-1.643 3.849-3.73 0-2.115-1.68-3.731-3.849-3.731-2.17 0-3.837 1.617-3.837 3.73 0 2.152 1.628 3.731 3.837 3.731zm0-1.078c-1.529 0-2.67-1.095-2.67-2.652 0-1.511 1.144-2.665 2.67-2.665 1.527 0 2.683 1.155 2.683 2.665 0 1.52-1.142 2.652-2.683 2.652zm9.048 0c-1.555 0-2.722-1.182-2.722-2.652 0-1.46 1.169-2.665 2.722-2.665 1.525 0 2.67 1.154 2.67 2.665 0 1.557-1.141 2.652-2.67 2.652z" fill="#fff" stroke="#fff" stroke-width=".4"/>
</svg>
